# xmcd
#
# Track frame offsets:
#	150
#	17068
#	33796
#	52765
#	63661
#	76610
#	90881
#	103123
#	117206
#	135067
#
# Disc length: 1991 seconds
#
# Revision: 0
# Processed by: cddbd v1.5.2PL0 Copyright (c) Steve Scherf et al.
# Submitted via: audiograbber 1.83.01
#
DISCID=6307c50a
DTITLE=Don Williams - Greatest Hits Vol. 4
DYEAR=1985
DGENRE=Country
TTITLE0=Love Is On A Roll
TTITLE1=That's The Thing About Love
TTITLE2=Maggie's Dream
TTITLE3=Louisiana Saturday Night
TTITLE4=Falling Again
TTITLE5=Stay Young
TTITLE6=Nobody But You
TTITLE7=Walkin' A Broken Heart
TTITLE8=It's Time For Love
TTITLE9=Cup O'Tea
EXTD=
EXTT0=
EXTT1=
EXTT2=
EXTT3=
EXTT4=
EXTT5=
EXTT6=
EXTT7=
EXTT8=
EXTT9=
PLAYORDER=
